<svg width="48" height="43" viewBox="0 0 48 43" fill="none" xmlns="http://www.w3.org/2000/svg">
<g clip-path="url(#clip0_1_2995)">
<path d="M15.5688 28.614C13.4096 28.614 12.8181 29.3796 12.8181 32.1855V36.6344C12.8181 39.4374 13.4096 40.2053 15.5688 40.2053C16.6102 40.2053 16.8001 39.5997 16.8001 38.9805V29.9458C16.8001 29.1044 16.5149 28.614 15.5688 28.614Z" fill="#22C5C1"/>
<path d="M23.8678 19.283C23.1792 21.9225 21.3347 24.314 19.8711 25.7263C19.1885 26.3814 18.5634 26.9788 18.2265 27.5245C17.929 28.0025 17.9513 28.3882 17.9513 28.9304V39.6855C17.9513 39.8755 18.0395 40.2124 18.5634 40.3135C19.439 40.4788 19.997 40.9356 20.5379 41.3578C21.3894 42.0246 22.2678 42.0746 23.4509 42.0746C23.4509 42.0746 33.1342 42.0499 33.1489 42.0523C33.3729 42.0499 33.7492 41.7871 33.9609 41.3643C34.1937 40.8986 34.1908 40.3171 33.9609 39.8508C33.8451 39.6156 33.6522 39.4527 33.4681 39.2969C33.1465 39.024 33.2224 38.5713 33.698 38.4972C34.2002 38.4249 34.6835 38.1826 34.944 37.6716C35.2198 37.1354 35.2198 36.4668 34.944 35.9353C34.6812 35.4208 34.2055 35.1015 33.698 35.1015C33.4593 35.1015 33.2629 34.9086 33.2629 34.6728C33.2629 34.4347 33.4593 34.2418 33.698 34.2418C34.2055 34.2418 34.6812 33.9261 34.944 33.4115C35.2198 32.8753 35.2198 32.2079 34.944 31.6722C34.6812 31.1607 34.2031 30.8426 33.6945 30.8426C33.4558 30.8426 33.2659 30.6497 33.2659 30.4139C33.2659 30.1746 33.4552 29.9817 33.6945 29.9817C34.2031 29.9817 34.6812 29.6636 34.944 29.1515C35.2198 28.6129 35.2198 27.9484 34.944 27.4127C34.6812 26.9006 34.2031 26.5825 33.6945 26.5825H27.5305C26.3945 26.5825 26.3698 25.5658 26.3268 24.8008C26.2898 24.1423 26.3121 22.9692 26.6273 22.0937C27.1812 20.5619 26.9119 19.4382 26.5385 18.792C25.7206 17.3685 24.3147 17.5613 23.8678 19.283Z" fill="#22C5C1"/>
<path d="M24.5687 1.54477L25.9499 4.3866L29.0981 4.85171C29.9654 4.97695 30.0171 5.35739 29.3991 5.96656L27.1665 7.97871L27.6774 11.1939C27.8427 12.18 27.5399 12.4164 26.8413 12.0453L23.9842 10.5236L21.1265 12.0459C20.4285 12.417 20.1257 12.1806 20.2939 11.1945L20.8054 7.9793L18.5699 5.96715C17.9513 5.35798 18.003 4.97754 18.8703 4.85229L22.0209 4.38718L23.4021 1.54536C23.5614 1.21196 23.7731 1.04614 23.9836 1.04614C24.1953 1.04556 24.4064 1.21137 24.5687 1.54477Z" fill="#22C5C1"/>
<path d="M6.69631 19.8616L7.90936 22.3536L10.6712 22.7611C11.4309 22.8716 11.4768 23.205 10.9346 23.7413L8.97423 25.5053L9.42229 28.3265C9.56929 29.1897 9.30234 29.3979 8.69023 29.0703L6.18474 27.7385L3.67691 29.0703C3.06362 29.3985 2.79784 29.1897 2.94484 28.3265L3.39173 25.5053L1.43132 23.7413C0.889769 23.205 0.936221 22.8716 1.69533 22.7611L4.46072 22.3536L5.67083 19.8616C5.8143 19.5706 5.99893 19.423 6.18474 19.423C6.3682 19.4236 6.55519 19.5706 6.69631 19.8616Z" fill="#22C5C1"/>
<path d="M12.1747 8.43784L13.3907 10.9374L16.1584 11.3449C16.9187 11.4549 16.9646 11.7883 16.4218 12.3251L14.4597 14.0915L14.9066 16.9186C15.053 17.7818 14.7866 17.9906 14.1745 17.663L11.6631 16.3277L9.15176 17.663C8.53965 17.9906 8.27328 17.7818 8.41969 16.9186L8.86775 14.0915L6.90441 12.3251C6.36168 11.7889 6.40813 11.4549 7.16783 11.3449L9.93616 10.9374L11.1492 8.43784C11.2927 8.14678 11.4767 8.00037 11.6637 8.00037C11.8501 7.99978 12.0342 8.14678 12.1747 8.43784Z" fill="#22C5C1"/>
<path d="M35.793 8.43784L34.5799 10.9374L31.811 11.3449C31.0484 11.4549 31.0025 11.7883 31.5482 12.3251L33.5109 14.0915L33.0605 16.9186C32.9135 17.7818 33.1799 17.9906 33.7955 17.663L36.304 16.3277L38.8153 17.663C39.4274 17.9906 39.6973 17.7818 39.5503 16.9186L39.0999 14.0915L41.0627 12.3251C41.6048 11.7889 41.5625 11.4549 40.7998 11.3449L38.0315 10.9374L36.8185 8.43784C36.675 8.14678 36.4909 8.00037 36.304 8.00037C36.1205 7.99978 35.9335 8.14678 35.793 8.43784Z" fill="#22C5C1"/>
<path d="M42.7691 19.8616L43.9822 22.3536L46.7452 22.7611C47.5043 22.8716 47.5502 23.205 47.008 23.7413L45.0476 25.5053L45.498 28.3265C45.645 29.1897 45.3763 29.3979 44.763 29.0703L42.2581 27.7385L39.7497 29.0703C39.1376 29.3985 38.8712 29.1897 39.0182 28.3265L39.4651 25.5053L37.5047 23.7413C36.9626 23.205 37.0084 22.8716 37.7687 22.7611L40.5341 22.3536L41.7471 19.8616C41.8871 19.5706 42.0711 19.423 42.2581 19.423C42.4416 19.4236 42.6286 19.5706 42.7691 19.8616Z" fill="#22C5C1"/>
</g>
<defs>
<clipPath id="clip0_1_2995">
<rect width="46.5" height="41.2" fill="white" transform="translate(0.834229 0.900024)"/>
</clipPath>
</defs>
</svg>
